<?xml version="1.0" ?><svg height="38" viewBox="0 0 38 38" width="38" xmlns="http://www.w3.org/2000/svg"><g fill="#4A90E2" fill-rule="evenodd" transform="translate(-5 -5)"><path d="M15.055574 33C13.1554143 30.876974 12 28.0734177 12 25 12 18.372583 17.372583 13 24 13 30.627417 13 36 18.372583 36 25 36 28.0734177 34.8445857 30.876974 32.944426 33L15.055574 33M24 5.625C24.6995607 5.625 25.2666667 6.19210598 25.2666667 6.89166667L25.2666667 9.35833333C25.2666667 10.057894 24.6995607 10.625 24 10.625 23.3004393 10.625 22.7333333 10.057894 22.7333333 9.35833333L22.7333333 6.89166667C22.7333333 6.19210598 23.3004393 5.625 24 5.625zM35.5205909 9.32529573C36.0865474 9.73648719 36.2120093 10.5286221 35.8008178 11.0945786L34.3509475 13.0901538C33.9397561 13.6561103 33.1476212 13.7815722 32.5816647 13.3703807 32.0157082 12.9591893 31.8902464 12.1670543 32.3014378 11.6010979L33.7513081 9.60552261C34.1624996 9.03956613 34.9546345 8.91410428 35.5205909 9.32529573zM42.6407077 19.0127957C42.8568839 19.6781175 42.4927794 20.3927127 41.8274577 20.6088888L39.4815183 21.3711308C38.8161965 21.5873069 38.1016013 21.2232025 37.8854251 20.5578807 37.669249 19.892559 38.0333535 19.1779637 38.6986752 18.9617876L41.0446146 18.1995457C41.7099364 17.9833695 42.4245316 18.347474 42.6407077 19.0127957zM5.35929228 19.0127957C5.57546842 18.347474 6.29006365 17.9833695 6.95538539 18.1995457L9.3013248 18.9617876C9.96664655 19.1779637 10.330751 19.892559 10.1145749 20.5578807 9.89839872 21.2232025 9.18380349 21.5873069 8.51848175 21.3711308L6.17254234 20.6088888C5.5072206 20.3927127 5.14311614 19.6781175 5.35929228 19.0127957zM12.4794091 9.32529573C13.0453655 8.91410428 13.8375004 9.03956613 14.2486919 9.60552261L15.6985622 11.6010979C16.1097536 12.1670543 15.9842918 12.9591893 15.4183353 13.3703807 14.8523788 13.7815722 14.0602439 13.6561103 13.6490525 13.0901538L12.1991822 11.0945786C11.7879907 10.5286221 11.9134526 9.73648719 12.4794091 9.32529573zM42.6407077 30.9872043C42.4245316 31.652526 41.7099364 32.0166305 41.0446146 31.8004543L38.6986752 31.0382124C38.0333535 30.8220363 37.669249 30.107441 37.8854251 29.4421193 38.1016013 28.7767975 38.8161965 28.4126931 39.4815183 28.6288692L41.8274577 29.3911112C42.4927794 29.6072873 42.8568839 30.3218825 42.6407077 30.9872043zM5.35929228 30.9872043C5.14311614 30.3218825 5.5072206 29.6072873 6.17254234 29.3911112L8.51848175 28.6288692C9.18380349 28.4126931 9.89839872 28.7767975 10.1145749 29.4421193 10.330751 30.107441 9.96664655 30.8220363 9.3013248 31.0382124L6.95538539 31.8004543C6.29006365 32.0166305 5.57546842 31.652526 5.35929228 30.9872043z"/><rect height="2" rx="1" width="28" x="10" y="41"/><rect height="2" rx="1" width="28" x="10" y="36"/></g></svg>